# xmcd
#
# Track frame offsets:
#	150
#	11571
#	24873
#	34197
#	47134
#	59706
#	71127
#	81836
#	92854
#	102168
#
# Disc length: 1550 seconds
#
# Revision: 0
# Processed by: cddbd v1.5.1PL0 Copyright (c) Steve Scherf et al.
# Submitted via: dBpowerAMP V4.0
#
DISCID=81060c0a
DTITLE=Merle Haggard - My Farewell To Elvis
DYEAR=1977
DGENRE=Country
TTITLE0=From Graceland To The Promiseland
TTITLE1=In The Ghetto
TTITLE2=Don't Be Cruel
TTITLE3=Jail House Rock
TTITLE4=Love Me Tender
TTITLE5=That's Alright Mama
TTITLE6=Heartbreak Hotel
TTITLE7=Blue Christmas
TTITLE8=Blue Suede Shoes
TTITLE9=Are You Lonesome Tonight/Merle's Farewell
EXTD=by Sound_Man73
EXTT0=
EXTT1=
EXTT2=
EXTT3=
EXTT4=
EXTT5=
EXTT6=
EXTT7=
EXTT8=
EXTT9=
PLAYORDER=
